<?xml version="1.0" encoding="UTF-8"?>
<svg xmlns="http://www.w3.org/2000/svg" viewBox="0 0 466.73 430.56">
  <defs>
    <style>
      .cls-1 {
        stroke: #fff;
      }

      .cls-1, .cls-2, .cls-3, .cls-4, .cls-5, .cls-6 {
        stroke-linecap: round;
        stroke-linejoin: round;
      }

      .cls-1, .cls-5 {
        fill: none;
      }

      .cls-2 {
        fill: #8a8a8a;
      }

      .cls-2, .cls-3, .cls-4, .cls-5, .cls-6 {
        stroke: #263238;
      }

      .cls-3, .cls-7 {
        fill: #92e3a9;
      }

      .cls-4, .cls-8 {
        fill: #fff;
      }

      .cls-7, .cls-9, .cls-8 {
        stroke-width: 0px;
      }

      .cls-9, .cls-6 {
        fill: #263238;
      }

      .cls-8 {
        opacity: .7;
      }
    </style>
  </defs>
  <g id="Background_Simple" data-name="Background Simple">
    <g>
      <path class="cls-7" d="M450.87,259.66c-13.18,39.94-41.56,83.71-83.34,97.96-63.12,21.54-68.76,73.3-183.32,72.95-17.86-.05-34.44-1.92-49.74-5.34-8.22-1.84-16.08-4.13-23.55-6.84C43.06,393.9,5.9,335.69.6,273.47c-6.99-81.82,48.7-123.1,84.98-147.42C121.87,101.74,163.24,11.37,275.86,10.83c17.17-.07,34.37,1.61,51.12,5.46,38.24,8.78,77.59,29.95,101.23,62.2,1.77,2.42,3.47,4.91,5.11,7.44,31.88,49.6,35.52,119.27,17.55,173.72Z"/>
      <path class="cls-8" d="M450.87,259.66c-13.18,39.94-41.56,83.71-83.34,97.96-63.12,21.54-68.76,73.3-183.32,72.95-17.86-.05-34.44-1.92-49.74-5.34-8.22-1.84-16.08-4.13-23.55-6.84C43.06,393.9,5.9,335.69.6,273.47c-6.99-81.82,48.7-123.1,84.98-147.42C121.87,101.74,163.24,11.37,275.86,10.83c17.17-.07,34.37,1.61,51.12,5.46,38.24,8.78,77.59,29.95,101.23,62.2,1.77,2.42,3.47,4.91,5.11,7.44,31.88,49.6,35.52,119.27,17.55,173.72Z"/>
    </g>
  </g>
  <g id="Floor">
    <line class="cls-5" x1="466.23" y1="412.84" x2="4.49" y2="412.84"/>
  </g>
  <g id="Plants">
    <g>
      <path class="cls-9" d="M21.71,349.57c2.15.94,7.42.82,7.42.82.05,0-1.13-3.45-1.23-3.66-1.16-2.42-4.81-6.41-7.78-6.01-2.14.29-3.33,2.43-2.85,4.45.49,2.06,2.61,3.59,4.44,4.39Z"/>
      <path class="cls-9" d="M23.52,364.83c2.23.33,6.93-1.04,7.31-1.15.74,2.63,1.72,5.27,2.85,7.89.65,1.5,1.34,2.98,2.06,4.47-.43-.63-.82-1.19-.88-1.26-1.75-2.03-6.33-4.91-9.09-3.74-1.99.84-2.57,3.23-1.57,5.04,1.02,1.86,3.46,2.77,5.44,3.06,2.01.29,6.04-.79,7.1-1.09.28.57.56,1.13.84,1.7,1.36,2.71,2.73,5.41,3.99,8.1.45.95.85,1.9,1.26,2.84-.38-.56-.71-1.02-.76-1.09-1.75-2.03-6.33-4.91-9.09-3.74-1.99.84-2.57,3.23-1.57,5.04,1.02,1.86,3.46,2.77,5.44,3.06,1.92.28,5.65-.69,6.91-1.04.39.98.78,1.97,1.11,2.94.21.67.46,1.3.64,1.98.19.67.37,1.34.56,2,.31,1.28.63,2.6.9,3.86.19.87.36,1.71.53,2.55-.43-.95-1.32-2.79-1.41-2.93-1.43-2.27-5.51-5.81-8.42-5.07-2.09.53-3.03,2.8-2.32,4.75.73,1.99,3,3.27,4.92,3.85,2.11.64,6.77.06,7.35-.02.28,1.39.54,2.75.76,4.04.12.68.22,1.32.33,1.96h1.86c-.14-.74-.28-1.5-.44-2.29-.28-1.42-.6-2.92-.95-4.47.35-.14,2.34-.94,4.1-1.93,1.54,1.66,5.47,3.61,5.98,3.86-.54,1.32-1.07,2.59-1.59,3.79-.16.36-.31.7-.46,1.04h1.95c.05-.12.1-.23.15-.35.55-1.33,1.11-2.77,1.67-4.25.56.12,5.18,1.06,7.33.57,1.95-.44,4.32-1.55,5.19-3.48.86-1.89.09-4.22-1.96-4.91-2.84-.96-7.19,2.27-8.78,4.43-.09.13-.96,1.62-1.49,2.57.23-.61.45-1.19.68-1.82.45-1.24.87-2.49,1.32-3.83.2-.66.39-1.32.59-1.99.21-.66.35-1.38.53-2.08.39-1.62.7-3.29.98-4.97,1.08.39,4.96,1.74,6.96,1.6,2-.14,4.5-.87,5.66-2.65,1.13-1.74.73-4.16-1.19-5.15-2.67-1.38-7.45,1.16-9.35,3.05-.12.12-1.33,1.63-1.98,2.47.16-1.01.32-2.02.45-3.05.37-2.97.65-6,.94-9.01.09-.92.19-1.84.29-2.76.38.14,4.95,1.84,7.2,1.69,2-.14,4.5-.87,5.66-2.65,1.13-1.74.73-4.16-1.19-5.15-2.67-1.38-7.45,1.16-9.35,3.05-.14.14-1.88,2.32-2.3,2.89.21-2.03.45-4.04.76-6.02.42-2.73.99-5.39,1.73-7.92.18.07,4.94,1.86,7.24,1.7,2-.14,4.5-.87,5.66-2.65,1.13-1.74.73-4.16-1.19-5.15-2.67-1.38-7.45,1.16-9.35,3.05-.15.15-2.02,2.49-2.33,2.94.04-.15.07-.31.12-.46.82-2.7,1.96-5.2,3.14-7.5.68-1.34,1.41-2.57,2.14-3.76.85.43,4.77,2.33,6.85,2.41,2,.08,4.57-.37,5.91-2.01,1.32-1.6,1.18-4.05-.62-5.25-2.5-1.66-7.53.34-9.62,2-.11.09-1.17,1.14-1.93,1.92.34-.53.68-1.09,1.02-1.59,1.26-1.89,2.52-3.54,3.65-5,.65-.82,1.26-1.55,1.83-2.23,1.05-.02,5.3-.15,7.16-1.02,1.81-.85,3.88-2.44,4.32-4.51.43-2.03-.82-4.14-2.97-4.37-2.98-.32-6.53,3.77-7.62,6.21-.09.21-1.19,3.69-1.13,3.69,0,0,.05,0,.06,0-.57.64-1.16,1.33-1.8,2.11-1.17,1.43-2.47,3.06-3.77,4.93-1.31,1.87-2.67,3.93-3.91,6.23-1.25,2.31-2.44,4.8-3.34,7.52-.01.03-.02.06-.03.1.02-.88-.02-3.34-.05-3.53-.34-2.66-2.57-7.59-5.52-8.13-2.13-.39-3.93,1.27-4.1,3.34-.17,2.11,1.36,4.22,2.85,5.56,1.68,1.5,6.36,2.96,6.73,3.07-.83,2.6-1.48,5.34-1.97,8.15-.29,1.61-.52,3.23-.74,4.86-.01-.76-.03-1.44-.04-1.54-.34-2.66-2.57-7.59-5.52-8.13-2.13-.39-3.93,1.27-4.09,3.34-.17,2.11,1.36,4.22,2.85,5.56,1.51,1.35,5.47,2.67,6.52,3.01-.08.63-.16,1.25-.24,1.88-.36,3.01-.71,6.02-1.14,8.96-.15,1.04-.34,2.05-.52,3.06-.01-.67-.03-1.24-.04-1.33-.34-2.66-2.57-7.59-5.52-8.13-2.13-.39-3.93,1.27-4.1,3.34-.17,2.11,1.36,4.22,2.85,5.56,1.44,1.29,5.09,2.54,6.34,2.95-.22,1.03-.44,2.07-.7,3.06-.19.67-.33,1.34-.56,2-.21.66-.43,1.32-.64,1.97-.45,1.24-.91,2.52-1.38,3.72-.32.84-.64,1.63-.96,2.42.16-1.03.44-3.05.44-3.22.04-1.78-.59-4.67-1.85-6.71,0-.26,0-.52-.05-.79-.33-2.05-2.25-3.57-4.34-3.01-2.9.77-4.74,5.86-4.88,8.54,0,.16.1,1.88.18,2.97-.15-.63-.28-1.24-.44-1.89-.3-1.28-.65-2.55-1.01-3.92-.2-.65-.4-1.32-.6-1.98-.19-.67-.47-1.35-.7-2.03-.57-1.57-1.23-3.13-1.93-4.69,1.12-.27,5.09-1.28,6.69-2.51,1.59-1.22,3.27-3.21,3.26-5.33-.01-2.07-1.69-3.87-3.83-3.64-2.98.32-5.57,5.08-6.11,7.7-.03.16-.21,2.09-.29,3.15-.43-.93-.85-1.87-1.31-2.8-1.33-2.69-2.77-5.36-4.18-8.04-.43-.82-.86-1.64-1.28-2.46.4-.09,5.15-1.19,6.93-2.56,1.59-1.22,3.27-3.21,3.26-5.33-.01-2.07-1.69-3.87-3.83-3.64-2.98.32-5.57,5.08-6.11,7.7-.04.2-.29,2.97-.32,3.68-.94-1.81-1.86-3.62-2.69-5.44-1.15-2.51-2.15-5.04-2.93-7.56.19-.04,5.15-1.17,6.98-2.57,1.59-1.22,3.27-3.21,3.26-5.33-.01-2.07-1.69-3.87-3.84-3.64-2.98.32-5.57,5.08-6.11,7.7-.04.21-.31,3.19-.32,3.73-.05-.15-.11-.3-.16-.45-.8-2.7-1.24-5.42-1.52-7.99-.17-1.49-.24-2.92-.29-4.32.95-.12,5.26-.69,7.04-1.77,1.71-1.04,3.6-2.83,3.82-4.94.21-2.06-1.25-4.03-3.41-4.03-3,0-6.1,4.43-6.92,6.98-.05.14-.35,1.6-.55,2.66,0-.63-.03-1.28-.03-1.89,0-2.27.15-4.35.29-6.19.09-1.05.19-1.99.3-2.87.87-.6,4.34-3.05,5.41-4.8,1.04-1.71,1.89-4.17,1.12-6.14-.76-1.93-2.97-3-4.89-2.01-2.67,1.38-3.37,6.74-2.93,9.39.04.23,1.05,3.73,1.09,3.7,0,0,.04-.03.05-.04-.12.85-.23,1.75-.34,2.75-.18,1.84-.37,3.92-.43,6.2-.06,2.28-.06,4.75.18,7.36.23,2.61.61,5.35,1.36,8.12,0,.03.02.06.03.09-.47-.74-1.86-2.77-1.99-2.91-1.75-2.03-6.33-4.91-9.09-3.74-1.99.85-2.57,3.23-1.57,5.04,1.02,1.86,3.46,2.77,5.44,3.06Z"/>
      <path class="cls-9" d="M74.97,350.73s.96-3.5.99-3.73c.37-2.65-.48-8-3.18-9.3-1.95-.94-4.12.19-4.83,2.14-.72,1.99.19,4.43,1.28,6.11,1.28,1.97,5.73,4.78,5.74,4.78Z"/>
    </g>
    <g>
      <path class="cls-9" d="M163.74,383.64c.99.43,3.42.38,3.43.38.03,0-.52-1.59-.57-1.69-.53-1.12-2.22-2.96-3.59-2.77-.99.13-1.54,1.12-1.32,2.05.23.95,1.2,1.66,2.05,2.03Z"/>
      <path class="cls-9" d="M164.58,390.68c1.03.15,3.2-.48,3.37-.53.34,1.21.79,2.43,1.32,3.64.3.69.62,1.38.95,2.06-.2-.29-.38-.55-.41-.58-.81-.94-2.92-2.27-4.2-1.73-.92.39-1.19,1.49-.73,2.33.47.86,1.6,1.28,2.51,1.41.93.14,2.79-.36,3.28-.5.13.26.26.52.39.78.63,1.25,1.26,2.5,1.84,3.74.21.44.39.88.58,1.31-.18-.26-.33-.47-.35-.5-.81-.94-2.92-2.27-4.2-1.73-.92.39-1.19,1.49-.73,2.33.47.86,1.6,1.28,2.51,1.41.89.13,2.61-.32,3.19-.48.18.45.36.91.51,1.36.1.31.21.6.29.91.09.31.17.62.26.92.14.59.29,1.2.42,1.78.09.4.17.79.25,1.18-.2-.44-.61-1.29-.65-1.35-.66-1.05-2.55-2.68-3.89-2.34-.97.25-1.4,1.29-1.07,2.19.34.92,1.39,1.51,2.27,1.78.97.3,3.13.03,3.39-.01.13.64.25,1.27.35,1.86.06.31.1.61.15.91h.86c-.06-.34-.13-.69-.2-1.06-.13-.65-.28-1.35-.44-2.06.16-.06,1.08-.44,1.89-.89.71.77,2.53,1.67,2.76,1.78-.25.61-.49,1.2-.73,1.75-.07.17-.14.32-.21.48h.9c.02-.05.04-.11.07-.16.25-.62.51-1.28.77-1.96.26.05,2.39.49,3.39.26.9-.2,1.99-.71,2.4-1.6.39-.87.04-1.95-.9-2.26-1.31-.44-3.32,1.05-4.05,2.05-.04.06-.44.75-.69,1.19.1-.28.21-.55.31-.84.21-.57.4-1.15.61-1.77.09-.3.18-.61.27-.92.1-.3.16-.64.25-.96.18-.75.32-1.52.45-2.3.5.18,2.29.8,3.21.74.92-.06,2.08-.4,2.61-1.22.52-.8.34-1.92-.55-2.38-1.23-.63-3.44.54-4.31,1.41-.05.05-.61.75-.91,1.14.07-.47.15-.93.21-1.41.17-1.37.3-2.77.44-4.16.04-.43.09-.85.13-1.28.18.07,2.29.85,3.32.78.92-.06,2.08-.4,2.61-1.22.52-.8.34-1.92-.55-2.38-1.23-.64-3.44.54-4.31,1.41-.07.07-.87,1.07-1.06,1.33.1-.94.21-1.87.35-2.78.2-1.26.46-2.49.8-3.66.08.03,2.28.86,3.34.79.92-.06,2.08-.4,2.61-1.22.52-.8.34-1.92-.55-2.38-1.23-.63-3.44.54-4.31,1.41-.07.07-.93,1.15-1.07,1.36.02-.07.03-.14.06-.21.38-1.24.9-2.4,1.45-3.46.31-.62.65-1.19.99-1.74.39.2,2.2,1.07,3.16,1.11.92.04,2.11-.17,2.73-.93.61-.74.54-1.87-.29-2.42-1.15-.77-3.48.15-4.44.93-.05.04-.54.53-.89.89.16-.25.31-.5.47-.73.58-.87,1.16-1.64,1.69-2.31.3-.38.58-.72.84-1.03.49,0,2.45-.07,3.3-.47.84-.39,1.79-1.12,1.99-2.08.2-.94-.38-1.91-1.37-2.02-1.38-.15-3.01,1.74-3.52,2.87-.04.1-.55,1.7-.52,1.7,0,0,.02,0,.03,0-.26.3-.54.62-.83.97-.54.66-1.14,1.41-1.74,2.28-.6.86-1.23,1.81-1.81,2.88-.58,1.07-1.13,2.21-1.54,3.47,0,.01,0,.03-.01.04,0-.41-.01-1.54-.02-1.63-.16-1.23-1.19-3.5-2.55-3.75-.98-.18-1.81.59-1.89,1.54-.08.97.63,1.95,1.32,2.57.78.69,2.93,1.37,3.11,1.42-.38,1.2-.68,2.47-.91,3.76-.13.74-.24,1.49-.34,2.25,0-.35-.01-.66-.02-.71-.16-1.23-1.19-3.5-2.55-3.75-.98-.18-1.81.59-1.89,1.54-.08.97.63,1.95,1.32,2.57.7.62,2.53,1.23,3.01,1.39-.04.29-.07.58-.11.87-.17,1.39-.33,2.78-.52,4.13-.07.48-.16.95-.24,1.41,0-.31-.01-.57-.02-.61-.16-1.23-1.19-3.5-2.55-3.75-.98-.18-1.81.59-1.89,1.54-.08.97.63,1.95,1.32,2.56.67.6,2.35,1.17,2.92,1.36-.1.48-.2.96-.32,1.41-.09.31-.15.62-.26.92-.1.31-.2.61-.29.91-.21.57-.42,1.16-.64,1.72-.15.39-.3.75-.44,1.12.07-.47.2-1.41.2-1.49.02-.82-.27-2.16-.85-3.1,0-.12,0-.24-.02-.36-.15-.95-1.04-1.65-2-1.39-1.34.36-2.19,2.71-2.25,3.94,0,.07.04.87.08,1.37-.07-.29-.13-.57-.2-.87-.14-.59-.3-1.18-.46-1.81-.09-.3-.18-.61-.28-.92-.09-.31-.22-.62-.32-.94-.26-.72-.57-1.44-.89-2.16.52-.12,2.35-.59,3.09-1.16.73-.56,1.51-1.48,1.5-2.46,0-.96-.78-1.79-1.77-1.68-1.38.15-2.57,2.34-2.82,3.55-.02.08-.1.96-.13,1.45-.2-.43-.39-.86-.6-1.29-.62-1.24-1.28-2.47-1.93-3.71-.2-.38-.4-.76-.59-1.14.18-.04,2.38-.55,3.2-1.18.73-.56,1.51-1.48,1.5-2.46,0-.96-.78-1.79-1.77-1.68-1.38.15-2.57,2.34-2.82,3.55-.02.09-.13,1.37-.15,1.7-.43-.83-.86-1.67-1.24-2.51-.53-1.16-.99-2.33-1.35-3.49.09-.02,2.38-.54,3.22-1.19.73-.56,1.51-1.48,1.5-2.46,0-.96-.78-1.79-1.77-1.68-1.38.15-2.57,2.34-2.82,3.55-.02.1-.14,1.47-.15,1.72-.02-.07-.05-.14-.07-.21-.37-1.25-.57-2.5-.7-3.69-.08-.69-.11-1.35-.13-1.99.44-.05,2.43-.32,3.25-.82.79-.48,1.66-1.31,1.76-2.28.1-.95-.58-1.86-1.57-1.86-1.38,0-2.81,2.05-3.19,3.22-.02.06-.16.74-.25,1.23,0-.29-.01-.59-.01-.87,0-1.05.07-2.01.13-2.86.04-.48.09-.92.14-1.32.4-.28,2-1.41,2.5-2.21.48-.79.87-1.93.52-2.84-.35-.89-1.37-1.39-2.26-.93-1.23.64-1.55,3.11-1.35,4.33.02.11.48,1.72.5,1.71,0,0,.02-.01.02-.02-.05.39-.11.81-.16,1.27-.08.85-.17,1.81-.2,2.86-.03,1.05-.03,2.19.08,3.4.11,1.21.28,2.47.63,3.75,0,.01,0,.03.01.04-.22-.34-.86-1.28-.92-1.35-.81-.94-2.92-2.27-4.2-1.73-.92.39-1.19,1.49-.73,2.33.47.86,1.6,1.28,2.51,1.41Z"/>
      <path class="cls-9" d="M188.33,384.17s.44-1.62.46-1.72c.17-1.22-.22-3.69-1.47-4.29-.9-.43-1.9.09-2.23.99-.33.92.09,2.05.59,2.82.59.91,2.65,2.21,2.65,2.21Z"/>
    </g>
  </g>
  <g id="Clouds">
    <g>
      <path class="cls-5" d="M207.86,17.99c-6.05,3.54-8.34,10.39-9.43,13.68-1.51,4.54-6.81-3.03-17.41.76-10.6,3.79-12.11,12.11-14.39,14.39s-17.41,8.33-17.41,8.33h151.95"/>
      <path class="cls-5" d="M308.74,55.14h18.41s3.03-16.66-3.79-24.99c-6.81-8.33-21.96,3.79-26.5-8.33,0,0-13.63-19.69-30.29-21.2-16.66-1.51-23.47,11.36-28.77,18.17-5.3,6.81-8.33-3.03-21.2-3.03"/>
      <path class="cls-5" d="M236.01,41.62c-3.09,2.87-3.51,6.71-3.51,6.71"/>
      <path class="cls-5" d="M293.83,28.64s-10.6-10.6-22.72-9.84c-12.11.76-7.57,15.14-12.87,19.69s-11.36-1.51-18.17.76"/>
    </g>
    <g>
      <path class="cls-5" d="M55.98,65.28c-3.95,2.31-5.45,6.79-6.16,8.94-.99,2.97-4.45-1.98-11.38.49s-7.91,7.91-9.4,9.4-11.38,5.44-11.38,5.44h99.28"/>
      <path class="cls-5" d="M121.89,89.55h12.03s1.98-10.88-2.47-16.32-14.35,2.47-17.31-5.44c0,0-8.9-12.86-19.79-13.85s-15.34,7.42-18.8,11.87c-3.46,4.45-5.44-1.98-13.85-1.98"/>
      <path class="cls-5" d="M74.37,80.72c-2.02,1.88-2.3,4.38-2.3,4.38"/>
      <path class="cls-5" d="M112.15,72.24s-6.93-6.93-14.84-6.43-4.95,9.89-8.41,12.86-7.42-.99-11.87.49"/>
    </g>
    <g>
      <path class="cls-5" d="M258.12,105.13c-2.76,1.61-3.8,4.73-4.3,6.23-.69,2.07-3.1-1.38-7.93.35s-5.52,5.52-6.55,6.55c-1.03,1.03-7.93,3.79-7.93,3.79h69.23"/>
      <path class="cls-5" d="M304.08,122.06h8.39s1.38-7.59-1.72-11.38-10,1.72-12.07-3.79c0,0-6.21-8.97-13.8-9.66s-10.69,5.17-13.11,8.28c-2.41,3.1-3.79-1.38-9.66-1.38"/>
      <path class="cls-5" d="M270.95,115.9c-1.41,1.31-1.6,3.06-1.6,3.06"/>
      <path class="cls-5" d="M297.29,109.98s-4.83-4.83-10.35-4.48c-5.52.35-3.45,6.9-5.86,8.97-2.41,2.07-5.17-.69-8.28.35"/>
    </g>
  </g>
  <g id="Text">
    <g>
      <path class="cls-6" d="M87.14,322.62v-41.71h-50.72v-24.73l44.22-103.32h33.74v105h17.4v23.05h-17.4v41.71h-27.24ZM60.73,257.86h26.41v-73.77l-26.41,73.77Z"/>
      <path class="cls-6" d="M191.3,325.13c-9.92,0-18.13-2.1-24.63-6.29-6.5-4.19-11.39-9.99-14.67-17.4-3.28-7.4-4.93-15.93-4.93-25.57v-75.24c0-9.92,1.57-18.62,4.72-26.09,3.14-7.47,7.96-13.31,14.46-17.5,6.5-4.19,14.84-6.29,25.04-6.29s18.55,2.1,25.04,6.29c6.5,4.19,11.32,10.03,14.46,17.5,3.14,7.48,4.72,16.17,4.72,26.09v75.24c0,9.64-1.64,18.16-4.93,25.57-3.28,7.41-8.17,13.2-14.67,17.4-6.5,4.19-14.71,6.29-24.63,6.29ZM191.3,300.19c4.33,0,7.54-1.33,9.64-3.98,2.1-2.65,3.49-5.87,4.19-9.64.7-3.77,1.05-7.47,1.05-11.11v-74.4c0-3.91-.31-7.79-.94-11.63-.63-3.84-1.99-7.09-4.09-9.75-2.1-2.65-5.38-3.98-9.85-3.98s-7.75,1.33-9.85,3.98c-2.1,2.66-3.46,5.9-4.09,9.75-.63,3.84-.94,7.72-.94,11.63v74.4c0,3.64.38,7.34,1.15,11.11.77,3.77,2.2,6.99,4.3,9.64,2.1,2.66,5.24,3.98,9.43,3.98Z"/>
      <path class="cls-6" d="M304.68,322.62v-41.71h-50.72v-24.73l44.22-103.32h33.74v105h17.4v23.05h-17.4v41.71h-27.24ZM278.27,257.86h26.41v-73.77l-26.41,73.77Z"/>
    </g>
    <g>
      <path class="cls-4" d="M99.77,322.62v-41.71h-50.72v-24.73l44.22-103.32h33.74v105h17.4v23.05h-17.4v41.71h-27.24ZM73.37,257.86h26.41v-73.77l-26.41,73.77Z"/>
      <path class="cls-4" d="M203.93,325.13c-9.92,0-18.13-2.1-24.63-6.29-6.5-4.19-11.39-9.99-14.67-17.4-3.28-7.4-4.93-15.93-4.93-25.57v-75.24c0-9.92,1.57-18.62,4.72-26.09,3.14-7.47,7.96-13.31,14.46-17.5,6.5-4.19,14.84-6.29,25.04-6.29s18.55,2.1,25.04,6.29c6.5,4.19,11.32,10.03,14.46,17.5,3.14,7.48,4.72,16.17,4.72,26.09v75.24c0,9.64-1.64,18.16-4.93,25.57-3.28,7.41-8.17,13.2-14.67,17.4-6.5,4.19-14.71,6.29-24.63,6.29ZM203.93,300.19c4.33,0,7.54-1.33,9.64-3.98,2.1-2.65,3.49-5.87,4.19-9.64.7-3.77,1.05-7.47,1.05-11.11v-74.4c0-3.91-.31-7.79-.94-11.63-.63-3.84-1.99-7.09-4.09-9.75-2.1-2.65-5.38-3.98-9.85-3.98s-7.75,1.33-9.85,3.98c-2.1,2.66-3.46,5.9-4.09,9.75-.63,3.84-.94,7.72-.94,11.63v74.4c0,3.64.38,7.34,1.15,11.11.77,3.77,2.2,6.99,4.3,9.64,2.1,2.66,5.24,3.98,9.43,3.98Z"/>
      <path class="cls-4" d="M317.31,322.62v-41.71h-50.72v-24.73l44.22-103.32h33.74v105h17.4v23.05h-17.4v41.71h-27.24ZM290.91,257.86h26.41v-73.77l-26.41,73.77Z"/>
    </g>
    <g>
      <path class="cls-9" d="M92.06,144.65c-2.36,0-4.23-.44-5.63-1.31-1.4-.88-2.4-2.14-3-3.78-.6-1.64-.9-3.59-.9-5.83v-12.44c0-2.24.3-4.17.9-5.77.6-1.6,1.6-2.83,3-3.68,1.4-.85,3.27-1.27,5.63-1.27s4.31.42,5.69,1.27c1.38.85,2.38,2.07,3,3.68.62,1.6.92,3.53.92,5.77v12.49c0,2.22-.31,4.14-.92,5.77-.62,1.63-1.62,2.89-3,3.78-1.38.89-3.28,1.33-5.69,1.33ZM92.06,140.18c1.01,0,1.76-.22,2.24-.66.48-.44.8-1.04.96-1.81.16-.77.25-1.6.25-2.51v-15.32c0-.93-.08-1.77-.25-2.51-.16-.74-.49-1.32-.96-1.75-.48-.42-1.23-.64-2.24-.64-.96,0-1.68.21-2.18.64-.49.42-.82,1.01-.99,1.75s-.25,1.57-.25,2.51v15.32c0,.9.07,1.74.23,2.51.15.77.47,1.37.96,1.81.49.44,1.23.66,2.22.66Z"/>
      <path class="cls-9" d="M115.18,144.65c-2.36,0-4.23-.44-5.63-1.31-1.4-.88-2.4-2.14-3-3.78-.6-1.64-.9-3.59-.9-5.83v-12.44c0-2.24.3-4.17.9-5.77.6-1.6,1.6-2.83,3-3.68,1.4-.85,3.27-1.27,5.63-1.27s4.31.42,5.69,1.27c1.38.85,2.38,2.07,3,3.68.62,1.6.92,3.53.92,5.77v12.49c0,2.22-.31,4.14-.92,5.77-.62,1.63-1.62,2.89-3,3.78-1.38.89-3.28,1.33-5.69,1.33ZM115.18,140.18c1.01,0,1.76-.22,2.24-.66.48-.44.8-1.04.96-1.81.16-.77.25-1.6.25-2.51v-15.32c0-.93-.08-1.77-.25-2.51-.16-.74-.49-1.32-.96-1.75-.48-.42-1.23-.64-2.24-.64-.96,0-1.68.21-2.18.64-.49.42-.82,1.01-.99,1.75s-.25,1.57-.25,2.51v15.32c0,.9.07,1.74.23,2.51.15.77.47,1.37.97,1.81.49.44,1.23.66,2.22.66Z"/>
      <path class="cls-9" d="M129.27,144.2v-33.27h9.77c2,0,3.62.37,4.87,1.11,1.25.74,2.16,1.81,2.75,3.22.59,1.41.88,3.12.88,5.11,0,2.16-.37,3.91-1.11,5.24-.74,1.33-1.77,2.29-3.1,2.9-1.33.6-2.9.9-4.7.9h-3.29v14.79h-6.08ZM135.35,125.15h2.3c1.09,0,1.95-.16,2.57-.47.62-.31,1.04-.82,1.27-1.52.23-.7.35-1.64.35-2.81s-.09-2.18-.27-2.94c-.18-.75-.56-1.31-1.15-1.66-.59-.36-1.51-.53-2.77-.53h-2.3v9.94Z"/>
      <path class="cls-9" d="M159.13,144.65c-2,0-3.67-.39-5.01-1.17-1.34-.78-2.35-1.92-3.04-3.43-.68-1.51-1.07-3.35-1.15-5.54l5.22-1.03c.05,1.29.21,2.42.47,3.41.26.99.66,1.75,1.19,2.28.53.53,1.24.8,2.11.8.99,0,1.68-.29,2.09-.88.41-.59.62-1.33.62-2.24,0-1.45-.33-2.64-.99-3.57-.66-.93-1.53-1.86-2.63-2.79l-4.19-3.7c-1.18-1.01-2.12-2.14-2.81-3.39-.7-1.25-1.05-2.79-1.05-4.62,0-2.63.77-4.65,2.3-6.08,1.53-1.42,3.63-2.14,6.28-2.14,1.56,0,2.86.24,3.9.72,1.04.48,1.87,1.14,2.48,1.99.62.85,1.07,1.81,1.38,2.9.3,1.08.49,2.22.58,3.43l-5.17.9c-.06-1.04-.17-1.97-.35-2.79-.18-.82-.49-1.46-.94-1.93-.45-.46-1.12-.7-1.99-.7s-1.6.29-2.07.88c-.48.59-.72,1.32-.72,2.2,0,1.12.23,2.05.7,2.77.47.73,1.14,1.47,2.01,2.24l4.15,3.66c1.37,1.15,2.54,2.5,3.51,4.05.97,1.55,1.46,3.42,1.46,5.61,0,1.59-.35,3-1.05,4.23s-1.67,2.2-2.92,2.9c-1.25.7-2.7,1.05-4.37,1.05Z"/>
      <path class="cls-9" d="M170.18,144.2v-5.42h5.42v5.42h-5.42ZM171.9,136.4l-1.68-25.42h5.59l-1.97,25.42h-1.93Z"/>
    </g>
  </g>
  <g id="Suitcase">
    <g>
      <path class="cls-6" d="M319.73,343.21v7.15h3.73v-4.19c0-1.84,1.49-3.33,3.33-3.33h12.22c1.84,0,3.33,1.49,3.33,3.33v4.19h3.73v-7.15c0-1.84-1.49-3.33-3.33-3.33h-19.67c-1.84,0-3.33,1.49-3.33,3.33Z"/>
      <path class="cls-6" d="M288.46,348.41h70.54c2.6,0,4.7,2.11,4.7,4.7v56.7c0,1.67-1.36,3.03-3.03,3.03h-73.89c-1.67,0-3.03-1.36-3.03-3.03v-56.7c0-2.6,2.11-4.7,4.7-4.7Z"/>
      <path class="cls-2" d="M298.24,348.41h70.54c2.6,0,4.7,2.11,4.7,4.7v56.7c0,1.67-1.36,3.03-3.03,3.03h-73.89c-1.67,0-3.03-1.36-3.03-3.03v-56.7c0-2.6,2.11-4.7,4.7-4.7Z"/>
    </g>
  </g>
  <g id="Character">
    <g>
      <g>
        <path class="cls-6" d="M393.54,221.87s-20.11,60.4-21.84,71.33c-1.74,10.93-.62,24.51.43,31.38,1.04,6.87,11.75,66.18,11.75,66.18,0,0-2.65-.89-2.84,1.02-.19,1.92.47,10.03.47,10.03,0,0-2.78,3.89-10.09,8.12-7.31,4.23-10.87,5.51-8.68,6.9,2.18,1.38,11.52,1.88,15.33,1.31,3.81-.57,14.06-1.76,15.73-2.04,1.67-.28,6.71.8,8.32-2.11,1.61-2.91.44-11.72.85-14.84.4-3.12-1.86-8.08-1.88-8.8s-2.02-67.75-2.02-67.75l1.27-16.65s-.37,15.86,1.45,17.62c1.82,1.77,20.84,67.95,20.84,67.95l-1.84,2.91,2.3,6.4-1.82,4.11s-8.65,8.09-12.19,10.09c-3.54,2-7.11,2.56-5.16,4.18,1.95,1.63,21.05.7,21.05.7l19.98-4.05s3.03-3.42,2.48-6.27c-.54-2.86-3.17-13.07-3.17-13.07,0,0,.64-13.4-.09-13.86-.73-.46-4.43-5.39-4.71-7.3-.28-1.91-2.36-39.34-4.56-45.63-2.2-6.29-4.93-16.14-4.93-16.14,0,0,1.55-1.57,1.65-3.25.1-1.69-.39-4.76-.39-4.76,0,0,20.87-54.3,21.82-57.41.96-3.11,5.26-19.83,5.26-26.53s-.48-11.71-.48-11.71c0,0-16.25,7.41-32.74,8.12s-31.07-.24-31.07-.24l-.48,4.06Z"/>
        <g>
          <path class="cls-1" d="M443.49,224.02s0,16.25,8.12,19.36"/>
          <path class="cls-1" d="M455.2,219.24s.48,10.99-1.67,20.79"/>
          <path class="cls-1" d="M439.61,269.05c-2.23,4.74-3.93,8.42-4.01,8.74"/>
          <path class="cls-1" d="M450.42,246.25s-5.21,10.94-9.45,19.94"/>
          <polyline class="cls-1" points="402.41 291.01 411.23 253.18 401.91 245.05"/>
          <line class="cls-1" x1="400.49" y1="299.22" x2="401.41" y2="295.3"/>
        </g>
      </g>
      <g>
        <path class="cls-3" d="M354.61,135.31l-23.93,10.42s14.28-29.72,14.86-31.46-7.91-16.4-7.72-16.98c.19-.58,7.53-9.46,7.72-11.39s4.25-8.68,1.16-9.07c-3.09-.39-19.49,14.86-19.88,18.72-.39,3.86,7.33,16.98,8.11,18.14.77,1.16-39.76,44.58-40.53,51.53-.77,6.95,2.51,11.39,8.3,12.16,5.79.77,51.34-14.86,58.28-16.79,6.95-1.93,9.26,1.16,9.26,1.16,0,0,21.81,26.44,23.35,29.72,1.54,3.28.77,15.44-.96,19.11s-3.67,10.04-2.7,11c.96.96,1.67,2.15,4.57,2.93,2.89.77,23.03,3.25,34.42,1.51,11.39-1.74,24.9-7.72,27.98-10.04,3.09-2.32,3.47-5.02,3.47-8.49s-2.32-6.56-3.86-10.04c-1.54-3.47-11.77-35.32-16.02-45.55-4.25-10.23-2.89-17.95-18.91-27.02-16.02-9.07-34.81-7.17-34.81-7.17l-32.16,17.59Z"/>
        <g>
          <g>
            <line class="cls-5" x1="329.72" y1="160.28" x2="329.53" y2="163.29"/>
            <polyline class="cls-5" points="324.51 165.03 330.68 145.73 329.87 158.02"/>
            <path class="cls-5" d="M323.93,128.55s.96,7.33,10.42,7.72"/>
            <path class="cls-4" d="M368.12,160.01s-6.95-4.63-14.09-6.95"/>
            <path class="cls-5" d="M351.93,155.55c-.77-.13-1.55-.25-2.33-.36"/>
            <path class="cls-5" d="M365.62,158.66s-4.92-1.44-10.97-2.62"/>
          </g>
          <path class="cls-5" d="M401,198.08c.68.56,1.16.92,1.29.92"/>
          <path class="cls-5" d="M393.6,191.47s3.4,3.16,5.96,5.39"/>
          <line class="cls-5" x1="435.28" y1="224.86" x2="452.46" y2="214.05"/>
          <path class="cls-5" d="M445.07,182.72c-1.94,7.85-5.69,21.21-10.17,27.66"/>
          <path class="cls-5" d="M446.48,176.61s-.24,1.18-.7,3.13"/>
          <path class="cls-5" d="M446.48,186.84s-3.67,16.02-6.56,20.46"/>
        </g>
      </g>
      <g>
        <path class="cls-4" d="M340.74,124.67c2.53-5.34,4.59-9.76,4.81-10.4.58-1.74-7.91-16.4-7.72-16.98.19-.58,7.53-9.46,7.72-11.39s4.25-8.68,1.16-9.07c-3.09-.39-19.49,14.86-19.88,18.72-.39,3.86,7.33,16.98,8.11,18.14.16.24-1.52,2.38-4.28,5.66,1.07,2.62,3.7,5.94,10.09,5.32Z"/>
        <path class="cls-5" d="M337.38,86.95s-4.84,9.37-4.66,10.08"/>
        <path class="cls-5" d="M333.79,87.07s-5.52,7.83-5.16,9.08"/>
      </g>
      <g>
        <polygon class="cls-2" points="375.26 157.12 382.98 172.75 386.65 172.94 389.74 155.38 387.23 151.33 385.49 162.33 380.86 162.13 375.46 154.03 375.26 157.12"/>
        <polygon class="cls-2" points="382.98 172.75 376.59 219.34 383.99 234.9 391.91 218.73 386.65 172.94 382.98 172.75"/>
        <g>
          <polygon class="cls-9" points="381.84 170.42 387.76 166.66 389.59 156.23 386.11 158.45 385.49 162.33 380.86 162.13 380.7 161.89 378.36 163.38 381.84 170.42"/>
          <polygon class="cls-9" points="386.65 172.94 386.66 172.89 386.58 172.94 386.65 172.94"/>
        </g>
        <g>
          <polygon class="cls-9" points="388.23 186.69 380.38 191.68 378.99 201.83 389.22 195.32 388.23 186.69"/>
          <polygon class="cls-9" points="387.64 181.53 386.65 172.94 386.58 172.94 382.61 175.47 381.22 185.62 387.64 181.53"/>
          <polygon class="cls-9" points="389.81 200.47 378.16 207.89 376.76 218.04 390.81 209.1 389.81 200.47"/>
          <polygon class="cls-9" points="388.73 225.22 391.91 218.73 391.4 214.26 378.18 222.68 381.56 229.79 388.73 225.22"/>
        </g>
      </g>
      <path class="cls-3" d="M369.86,139.17s-1.54,9.46-1.35,13.7,2.32,11.77,2.32,11.77l9.46-10.81,15.83,9.84s-.58-20.07-.58-20.65-3.67-22.19-4.82-24.32-4.25-3.28-5.98-2.89c-1.74.39-14.86,23.35-14.86,23.35Z"/>
      <g>
        <g>
          <path class="cls-4" d="M343.2,86.45s-.5,14.14-.17,19.79c.33,5.65-.5,10.15,1,14.8,1.5,4.66,3.16,13.64,4.66,16.63s4.66,5.82,9.31,5.82,9.81-3.83,12.31-6.32c2.49-2.49,6.82-5.99,9.15-10.48,2.33-4.49.33-15.8.67-18.96.33-3.16,1-8.65,1-8.65,0,0,3.33-8.15.67-11.98-2.66-3.83-14.47-8.15-23.45-7.32-8.98.83-15.14,6.65-15.14,6.65Z"/>
          <path class="cls-5" d="M351.02,102.42l1.33,4.99s-3.99,11.64-2.99,12.31c1,.67,9.15-.17,9.15-.17"/>
          <path class="cls-6" d="M357.5,97.26s-.17,1.83.5,2.16c.67.33,7.15,2.83,8.15,2.49,1-.33-.33-1.66-1.16-2-.83-.33-7.82-4.16-7.48-2.66Z"/>
          <path class="cls-6" d="M351.02,99.92s-5.32,2.99-6.32,3.16c-1,.17.67-2,.67-2,0,0,3.99-4.49,4.99-3.83,1,.67.67,2.66.67,2.66Z"/>
          <path class="cls-5" d="M359.5,106.58s2.83,2.99,6.65.67"/>
          <path class="cls-5" d="M345.69,107.91s2.66,1.66,5.32-1"/>
        </g>
        <path class="cls-6" d="M380.12,107.74c.3-2.87.87-7.63.98-8.5l-3.31-1.81s1,12.31-.33,19.13c-1.33,6.82-3.66,8.98-6.32,9.98-2.66,1-3.99-.33-3.99-.33,0,0-6.32-5.99-11.98-6.15-4.94-.15-8.73,5.28-9.62,6.67,1.05,4.28,2.13,8.96,3.13,10.96,1.5,2.99,4.66,5.82,9.31,5.82s9.81-3.83,12.31-6.32c2.49-2.49,6.82-5.99,9.15-10.48,2.33-4.49.33-15.8.67-18.96Z"/>
        <path class="cls-4" d="M363.16,131.19s-3.49-4.99-6.82-5.82c-3.33-.83-6.82,5.65-5.65,6.82,1.16,1.16,2.83-3.16,5.99-1.83,3.16,1.33,4.99,3.49,6.49.83Z"/>
        <path class="cls-6" d="M342.7,77.64s-4.99-1.5-8.15.17c-3.16,1.66-4.66,5.32-4.66,5.32l6.49.5,2.99,1.5s-1.33,0-2,1.83c-.67,1.83-1.16,3.99-1.16,3.99,0,0,2.33-1.33,5.99-1.83,3.66-.5,10.81-2.66,10.81-2.66l.83,5.49s4.16-2.66,7.48-3.66c3.33-1,5.32-3.16,5.32-3.16,0,0,8.65,3.33,8.48,4.82-.17,1.5-3.16,5.16-2.16,6.32,1,1.16,3.66,3.66,3.66,3.66l9.98,5.65s3.66-5.65,5.49-14.64c1.83-8.98-6.49-18.63-13.47-21.29s-12.14-1.66-16.47-1.5-10.31-1.16-10.31-1.16l3.99,4.16s-3.83,1.5-5.49,1.83c-1.66.33-4.49,1.16-5.16.83-.67-.33-2.99-1.83-2.99-1.83,0,0-1.16,4.99.5,5.65Z"/>
        <path class="cls-4" d="M382.78,114.73s2.49-1.33,3.83-3.33c1.33-2,5.16-9.65.67-11.81-3.4-1.64-5.66,1.3-6.55,2.83-.2,1.73-.44,3.8-.6,5.32-.33,3.16,1.66,14.47-.67,18.96-2.33,4.49-6.65,7.98-9.15,10.48-.96.96-2.31,2.11-3.87,3.17l4.2,1.16s1.33,4.16,4.99,8.82,6.82,7.65,6.82,7.65c0,0,1-5.99,3.66-19.29s.67-20.96.67-20.96l-3.99-2.99Z"/>
        <path class="cls-6" d="M370.64,141.5l5.82,1.66-2.83,4.16s-2.33-3.83-2.99-5.82Z"/>
      </g>
      <g>
        <path class="cls-3" d="M405.76,137.05l4.82,120.62,10.81.77s9.26-38.98,11.97-52.3c2.7-13.32,3.67-21.81,3.47-32.42-.19-10.61-2.7-32.62-2.7-32.62,0,0-5.6-9.46-10.42-12.74"/>
        <path class="cls-5" d="M427.71,159.6c1-3.15,1.6-5.19,1.6-5.19"/>
        <path class="cls-5" d="M408.65,206.91s4.63-10.81,10.04-22.77c2.94-6.52,5.83-14.75,7.85-20.9"/>
        <path class="cls-5" d="M421.49,190.57c-.3.83-.6,1.53-.87,2.06"/>
        <path class="cls-5" d="M427.18,168.5s-2.38,11.34-4.62,18.81"/>
        <line class="cls-5" x1="410.58" y1="247.05" x2="423.51" y2="247.63"/>
      </g>
      <g>
        <path class="cls-4" d="M410.58,257.66s-1.51,18.62-1.51,20.23,1.29,13.36,1.61,14.32c.32.97,8.53,7.08,9.33,7.08s5.31.48,6.12-.8c.8-1.29,1.13-2.09,0-2.41s-4.18-.16-4.18-.16l-1.77-.8s6.6-.64,7.08-.8c.48-.16,2.9-1.77,3.38-2.9.48-1.13-.32-2.41-.32-2.41,0,0,2.41-2.25,2.58-3.06.16-.8.32-3.06-.8-2.74s-2.74,2.09-2.74,2.09h-4.02s4.18-2.74,4.67-3.54c.48-.8,1.13-4.18.97-5.15-.16-.97-2.25.16-2.74,1.13s-1.29,3.54-1.29,3.54l-4.83.64-1.61-2.09s3.22-9.98,3.22-12.07-2.33-9.32-2.33-9.32l-10.81-.77Z"/>
        <path class="cls-5" d="M416.48,282.08s3.54,3.06,4.51,3.38c.97.32,4.35-.16,4.35-.16"/>
        <path class="cls-5" d="M414.38,285.62s5.47,4.83,6.92,4.83,9.01-1.45,9.01-1.45"/>
        <path class="cls-5" d="M413.26,289.8s3.22,3.86,4.18,4.18,2.74,1.13,2.74,1.13"/>
      </g>
    </g>
  </g>
</svg>